<svg preserveAspectRatio="none" width="100%" height="100%" overflow="visible" style="display: block;" viewBox="0 0 20.5002 20.9597" fill="none" xmlns="http://www.w3.org/2000/svg">
<path id="Icon" d="M1.25016 6.05C1.25016 4.36984 1.25016 3.52977 1.57714 2.88803C1.86476 2.32354 2.3237 1.8646 2.88819 1.57698C3.52992 1.25 4.37 1.25 6.05016 1.25H14.4502C16.1303 1.25 16.9704 1.25 17.6121 1.57698C18.1766 1.8646 18.6356 2.32354 18.9232 2.88803C19.2502 3.52977 19.2502 4.36984 19.2502 6.05V11.45C19.2502 13.1302 19.2502 13.9702 18.9232 14.612C18.6356 15.1765 18.1766 15.6354 17.6121 15.923C16.9704 16.25 16.1303 16.25 14.4502 16.25H11.9339C11.3099 16.25 10.9978 16.25 10.6994 16.3113C10.4346 16.3656 10.1784 16.4555 9.93764 16.5785C9.66633 16.7171 9.42267 16.912 8.93537 17.3018L6.54991 19.2102C6.13383 19.5431 5.92579 19.7095 5.7507 19.7097C5.59843 19.7099 5.45438 19.6406 5.35939 19.5216C5.25016 19.3848 5.25016 19.1184 5.25016 18.5855V16.25C4.32019 16.25 3.8552 16.25 3.4737 16.1478C2.43842 15.8704 1.62978 15.0617 1.35238 14.0265C1.25016 13.645 1.25016 13.18 1.25016 12.25V6.05Z" stroke="var(--stroke-0, #0A0A0A)" stroke-width="2.5" stroke-linecap="round" stroke-linejoin="round"/>
</svg>
