<svg preserveAspectRatio="none" width="100%" height="100%" overflow="visible" style="display: block;" viewBox="0 0 21.75 18.0003" fill="none" xmlns="http://www.w3.org/2000/svg">
<path id="Icon" d="M15.75 6.00015L9.75 12.0001M9.75 6.00015L15.75 12.0001M1.47 9.96015L5.79 15.7201C6.142 16.1895 6.318 16.4241 6.54105 16.5934C6.7386 16.7433 6.96232 16.8552 7.20077 16.9233C7.47 17.0001 7.76334 17.0001 8.35 17.0001H15.95C17.6302 17.0001 18.4702 17.0001 19.112 16.6732C19.6765 16.3855 20.1354 15.9266 20.423 15.3621C20.75 14.7204 20.75 13.8803 20.75 12.2001V5.80015C20.75 4.11999 20.75 3.27991 20.423 2.63817C20.1354 2.07369 19.6765 1.61475 19.112 1.32713C18.4702 1.00015 17.6302 1.00015 15.95 1.00015H8.35C7.76334 1.00015 7.47 1.00015 7.20077 1.07704C6.96232 1.14514 6.7386 1.25699 6.54105 1.4069C6.318 1.57615 6.142 1.81081 5.79 2.28015L1.47 8.04015C1.21181 8.3844 1.08271 8.55653 1.03294 8.74558C0.989018 8.91245 0.989018 9.08784 1.03294 9.25471C1.08271 9.44376 1.21181 9.61589 1.47 9.96015Z" stroke="var(--stroke-0, #0A0A0A)" stroke-width="2" stroke-linecap="round" stroke-linejoin="round"/>
</svg>
