<svg preserveAspectRatio="none" width="100%" height="100%" overflow="visible" style="display: block;" viewBox="0 0 26.6666 23.7786" fill="none" xmlns="http://www.w3.org/2000/svg">
<path id="Subtract" d="M2.87297 1.74624C6.21112 -1.10578 10.653 -0.269225 13.3193 2.84292L11.3329 9.59975H14.1327L12.5331 19.2003L17.7333 7.20034H14.5331L16.6552 0.475728C18.9519 -0.38742 21.5718 -0.0849992 23.7753 1.74624C27.1728 4.57004 27.5858 9.37198 24.9628 12.7472C22.782 15.5534 16.1828 21.472 14.0195 23.3878C13.7774 23.6022 13.6557 23.709 13.5146 23.7511C13.3914 23.7878 13.2568 23.7878 13.1337 23.7511C12.9926 23.709 12.8717 23.602 12.6298 23.3878C10.4667 21.4722 3.8663 15.5535 1.68547 12.7472C-0.937394 9.37199 -0.467056 4.60003 2.87297 1.74624Z" fill="var(--fill-0, #FF4A4A)"/>
</svg>
