<svg preserveAspectRatio="none" width="100%" height="100%" overflow="visible" style="display: block;" viewBox="0 0 22.5 22.5" fill="none" xmlns="http://www.w3.org/2000/svg">
<path id="Icon" d="M17.25 1.25L21.25 5.25M1.25003 21.25L2.52643 16.5699C2.6097 16.2645 2.65134 16.1119 2.71526 15.9695C2.77201 15.8431 2.84175 15.7229 2.92335 15.6109C3.01524 15.4848 3.12714 15.3729 3.35093 15.1491L13.6843 4.81569C13.8824 4.61768 13.9814 4.51867 14.0955 4.48158C14.1959 4.44895 14.3041 4.44895 14.4045 4.48158C14.5187 4.51867 14.6177 4.61768 14.8157 4.81569L17.6843 7.68431C17.8824 7.88232 17.9814 7.98133 18.0185 8.09549C18.0511 8.19591 18.0511 8.30409 18.0185 8.40451C17.9814 8.51867 17.8824 8.61768 17.6843 8.81569L7.35093 19.1491C7.12714 19.3729 7.01524 19.4848 6.88911 19.5767C6.77712 19.6583 6.65695 19.728 6.53054 19.7848C6.38818 19.8487 6.23551 19.8903 5.93017 19.9736L1.25003 21.25Z" stroke="var(--stroke-0, #0A0A0A)" stroke-width="2.5" stroke-linecap="round" stroke-linejoin="round"/>
</svg>
