<svg preserveAspectRatio="none" width="100%" height="100%" overflow="visible" style="display: block;" viewBox="0 0 15.2725 10.966" fill="none" xmlns="http://www.w3.org/2000/svg">
<path id="Wifi" d="M5.42676 8.40061C6.70234 7.32173 8.57111 7.32173 9.84669 8.40061C9.91066 8.45863 9.94746 8.54082 9.94923 8.62718C9.9509 8.71357 9.91715 8.79711 9.85548 8.85764L7.85841 10.8733C7.79988 10.9324 7.71995 10.966 7.63673 10.966C7.55351 10.966 7.47358 10.9324 7.41505 10.8733L5.417 8.85764C5.35539 8.79709 5.32153 8.71353 5.32325 8.62718C5.32508 8.54077 5.36269 8.45859 5.42676 8.40061ZM2.76173 5.71116C5.50984 3.155 9.76552 3.15507 12.5137 5.71116C12.5757 5.77106 12.6114 5.85349 12.6123 5.93968C12.6132 6.0259 12.5793 6.10896 12.5186 6.17014L11.3643 7.33714C11.2453 7.45622 11.0527 7.45882 10.9307 7.343C10.0282 6.52581 8.85418 6.07341 7.63673 6.07347C6.42004 6.07397 5.24661 6.52633 4.34473 7.343C4.22276 7.45862 4.03104 7.45589 3.91212 7.33714L2.75684 6.17014C2.69612 6.10907 2.66228 6.02581 2.66309 5.93968C2.66398 5.85349 2.69972 5.77104 2.76173 5.71116ZM0.0966866 3.02952C4.3118 -1.00975 10.9618 -1.00993 15.1768 3.02952C15.2377 3.0895 15.2719 3.17158 15.2725 3.25706C15.273 3.34264 15.239 3.42485 15.1787 3.48557L14.0234 4.65257C13.9043 4.77228 13.7108 4.77336 13.5899 4.6555C11.9839 3.12872 9.85258 2.27769 7.63673 2.27757C5.42062 2.27756 3.28878 3.1286 1.68262 4.6555C1.56186 4.77339 1.36904 4.77216 1.25001 4.65257L0.0937569 3.48557C0.0334926 3.42481 -0.000556156 3.34264 6.87362e-06 3.25706C0.000575243 3.17149 0.0356328 3.08948 0.0966866 3.02952Z" fill="var(--fill-0, #0A0A0A)"/>
</svg>
