<svg width="343" height="305" viewBox="0 0 343 305" fill="none" xmlns="http://www.w3.org/2000/svg">
<path d="M126 0C130.859 3.13268e-07 135.293 1.82427 138.653 4.82533C148.447 13.5742 153.344 17.9486 154.722 18.4743C156.1 19 157.733 19 161 19H295C317.627 19 328.941 18.9999 335.971 26.0293C343 33.0587 343 44.3726 343 67V257C343 279.627 343 290.941 335.971 297.971C328.941 305 317.627 305 295 305H48C25.3726 305 14.0587 305 7.0293 297.971C-0.00014019 290.941 0 279.627 0 257V67C0 44.3726 -0.000139713 33.0587 7.0293 26.0293C10.0306 23.028 13.8134 21.3103 18.9239 20.325C19.5531 20.2037 20 19.6408 20 19C20 8.50659 28.5066 0 39 0H126Z" fill="white"/>
</svg>
